<svg width="249" height="154" viewBox="0 0 249 154" fill="none" xmlns="http://www.w3.org/2000/svg">
<g filter="url(#filter0_d_48_998)">
<path d="M35.3973 25.3178L3 53.5918L14.7808 114.852L64.8493 149.605L117.274 135.468L200.918 130.756L246.274 80.0986L237.438 20.0164L138.479 1.75616L35.3973 25.3178Z" fill="white"/>
</g>
<path d="M61.6876 43.5565C68.6009 43.5565 73.2759 46.1631 75.7126 51.3765C76.3926 52.3398 76.7326 53.7848 76.7326 55.7115V57.1565C76.7326 61.9165 73.9843 67.5831 68.4876 74.1565C67.0143 75.5731 65.8809 76.2815 65.0876 76.2815H64.5776C63.2743 76.2815 62.6226 75.6298 62.6226 74.3265V73.6465C62.6226 72.7965 64.1526 70.7848 67.2126 67.6115C70.1593 62.7948 71.6326 59.3948 71.6326 57.4115V55.2015C71.6326 51.9148 68.9693 49.8181 63.6426 48.9115C62.7359 48.7415 61.9993 48.6565 61.4326 48.6565C58.3159 48.6565 53.6126 49.6198 47.3226 51.5465H47.1526C45.5093 51.2065 44.6876 50.4131 44.6876 49.1665C44.6876 46.2765 50.3543 44.4065 61.6876 43.5565ZM75.9676 88.9465C75.9676 89.0598 76.0526 89.1165 76.2226 89.1165C76.2226 89.0031 76.3076 88.9465 76.4776 88.9465V89.1165L76.9026 88.9465H77.9226C78.2626 88.9465 78.5743 89.0031 78.8576 89.1165C79.0276 89.1165 79.1126 89.0598 79.1126 88.9465C85.9126 88.9465 90.6159 90.6181 93.2226 93.9615C94.3559 95.4915 94.9226 97.3615 94.9226 99.5715C94.9226 102.915 90.7009 104.87 82.2576 105.436C72.3976 105.72 67.4676 106.598 67.4676 108.071V108.326C67.4676 110.536 70.2159 112.236 75.7126 113.426H80.5576C85.2609 113.426 90.3609 112.52 95.8576 110.706H96.1126C97.5859 110.706 98.3226 111.698 98.3226 113.681C98.3226 116.118 92.0893 117.79 79.6226 118.696C79.3393 118.583 78.9426 118.526 78.4326 118.526H78.1776C78.0076 118.526 77.9226 118.583 77.9226 118.696L77.4126 118.526H76.4776C70.7543 118.526 66.3059 116.26 63.1326 111.726C62.7926 110.933 62.4526 109.63 62.1126 107.816C63.3026 104.416 64.6909 102.716 66.2776 102.716C66.2776 101.696 72.8226 100.733 85.9126 99.8265C88.3493 99.4298 89.5676 99.0331 89.5676 98.6365V98.3815C89.5676 95.6048 85.9126 94.2165 78.6026 94.2165H68.4876L67.9776 94.4715V94.2165C67.6376 94.3865 67.3826 94.4715 67.2126 94.4715L66.0226 94.2165L65.0876 94.4715C62.3109 94.4715 60.9226 93.5081 60.9226 91.5815C60.9226 90.8448 61.6593 90.1081 63.1326 89.3715C67.0993 89.2015 70.2443 89.1165 72.5676 89.1165H73.5876L75.9676 88.9465ZM94.9226 42.3665H95.0926C96.4526 42.3665 97.2743 43.3298 97.5576 45.2565C97.0476 55.8531 96.7926 62.4831 96.7926 65.1465H96.6226C96.6226 65.3165 96.6793 65.4015 96.7926 65.4015C96.7926 65.5148 96.7359 65.9965 96.6226 66.8465C96.4526 72.0031 96.3676 75.0065 96.3676 75.8565C95.7443 77.4431 94.7526 78.2365 93.3926 78.2365C91.9759 77.7265 91.2676 76.9331 91.2676 75.8565V68.2915C91.2676 68.1215 91.3526 68.0365 91.5226 68.0365C91.5226 67.9231 91.4376 67.8665 91.2676 67.8665C91.2676 67.6398 91.3526 67.3848 91.5226 67.1015C91.6926 60.6981 91.8343 57.2131 91.9476 56.6465C91.9476 56.4765 91.8909 56.3915 91.7776 56.3915L91.9476 55.2015C91.9476 46.9848 92.5143 42.8765 93.6476 42.8765C93.6476 42.5931 94.0726 42.4231 94.9226 42.3665ZM153.652 42.3665H153.822C155.182 42.3665 156.004 43.3298 156.287 45.2565C155.777 55.8531 155.522 62.4831 155.522 65.1465H155.352C155.352 65.3165 155.409 65.4015 155.522 65.4015C155.522 65.5148 155.466 65.9965 155.352 66.8465C155.182 72.0031 155.097 75.0065 155.097 75.8565C154.474 77.4431 153.482 78.2365 152.122 78.2365C150.989 78.2365 150.281 77.3581 149.997 75.6015C149.997 73.1081 150.082 69.1415 150.252 63.7015C150.422 63.4181 150.507 63.1065 150.507 62.7665L149.997 62.5115H142.687C141.384 62.5115 140.591 61.6048 140.307 59.7915C140.307 58.2048 141.837 57.4115 144.897 57.4115H150.252C150.536 57.4115 150.677 57.2415 150.677 56.9015V52.8215L150.932 51.3765C150.932 51.2065 150.847 51.1215 150.677 51.1215C150.847 45.6248 151.414 42.8765 152.377 42.8765C152.377 42.5931 152.802 42.4231 153.652 42.3665ZM120.417 43.5565C127.331 43.5565 132.006 46.1631 134.442 51.3765C135.122 52.3398 135.462 53.7848 135.462 55.7115V57.1565C135.462 61.9165 132.714 67.5831 127.217 74.1565C125.744 75.5731 124.611 76.2815 123.817 76.2815H123.307C122.004 76.2815 121.352 75.6581 121.352 74.4115V73.6465C121.352 72.7965 122.882 70.7848 125.942 67.6115C128.889 62.7948 130.362 59.3948 130.362 57.4115V55.2015C130.362 51.9148 127.699 49.8181 122.372 48.9115C121.466 48.7415 120.729 48.6565 120.162 48.6565C117.046 48.6565 112.342 49.6198 106.052 51.5465H105.882C104.239 51.2065 103.417 50.4131 103.417 49.1665C103.417 46.2765 109.084 44.4065 120.417 43.5565ZM211.635 42.3665H211.89C213.25 42.3665 214.043 43.3298 214.27 45.2565C213.817 55.8531 213.59 62.4831 213.59 65.1465H213.335C213.335 65.3165 213.42 65.4015 213.59 65.4015C213.59 65.5148 213.505 65.9965 213.335 66.8465C213.165 72.0031 213.08 75.0065 213.08 75.8565C212.457 77.4431 211.493 78.2365 210.19 78.2365C208.717 77.7265 207.98 76.9331 207.98 75.8565V68.2915C207.98 68.1215 208.065 68.0365 208.235 68.0365C208.235 67.9231 208.15 67.8665 207.98 67.8665C207.98 67.6398 208.065 67.3848 208.235 67.1015C208.405 60.6981 208.575 57.2131 208.745 56.6465C208.745 56.4765 208.66 56.3915 208.49 56.3915L208.745 55.2015C208.745 46.9848 209.312 42.8765 210.445 42.8765C210.445 42.5931 210.842 42.4231 211.635 42.3665ZM177.295 43.5565C184.832 43.5565 189.96 45.5681 192.68 49.5915C193.133 50.6681 193.36 51.5465 193.36 52.2265C193.36 56.7031 189.705 59.4231 182.395 60.3865C175.482 60.8965 171.685 61.5765 171.005 62.4265C168.002 63.7298 166.5 65.1465 166.5 66.6765C166.5 68.4331 169.163 69.8215 174.49 70.8415L174.915 70.6715H175.85C178.117 70.6715 182.395 69.4815 188.685 67.1015H189.62C191.207 67.3281 192 68.0365 192 69.2265C192 71.0398 190.442 72.2015 187.325 72.7115C182.508 74.7515 178.23 75.7715 174.49 75.7715C168.427 75.7715 164.148 73.2781 161.655 68.2915L161.4 66.6765C161.4 62.0298 165.197 58.6015 172.79 56.3915C181.29 55.5981 186.135 54.7481 187.325 53.8415C187.948 53.5581 188.26 53.0198 188.26 52.2265C186.39 49.8465 182.877 48.6565 177.72 48.6565H175.425L174.915 48.9115V48.6565L164.205 50.3565C162.618 49.9598 161.825 49.1665 161.825 47.9765V47.7215C161.825 46.0781 163.638 45.0865 167.265 44.7465C169.078 44.2365 172.422 43.8398 177.295 43.5565Z" fill="#2A2A2A"/>
<defs>
<filter id="filter0_d_48_998" x="0.643836" y="0.578082" width="247.986" height="152.562" filterUnits="userSpaceOnUse" color-interpolation-filters="sRGB">
<feFlood flood-opacity="0" result="BackgroundImageFix"/>
<feColorMatrix in="SourceAlpha" type="matrix" values="0 0 0 0 0 0 0 0 0 0 0 0 0 0 0 0 0 0 127 0" result="hardAlpha"/>
<feOffset dy="1.17808"/>
<feGaussianBlur stdDeviation="1.17808"/>
<feComposite in2="hardAlpha" operator="out"/>
<feColorMatrix type="matrix" values="0 0 0 0 0 0 0 0 0 0 0 0 0 0 0 0 0 0 0.25 0"/>
<feBlend mode="normal" in2="BackgroundImageFix" result="effect1_dropShadow_48_998"/>
<feBlend mode="normal" in="SourceGraphic" in2="effect1_dropShadow_48_998" result="shape"/>
</filter>
</defs>
</svg>
