<svg width="43" height="44" viewBox="0 0 43 44" fill="none" xmlns="http://www.w3.org/2000/svg">
<path d="M26.7886 6.74382C25.4567 5.92004 24.3315 5.34515 23.4131 5.01915C22.5395 4.65914 21.6695 4.41999 20.8029 4.30168C19.7001 4.1511 18.4925 4.32725 17.1801 4.83012C15.8677 5.33298 14.6716 6.01222 13.5919 6.86782L14.2211 2.25958C15.3062 1.36459 16.4745 0.741747 17.726 0.391051C18.9829 0.000967294 20.3203 -0.0972778 21.7382 0.0963179C22.8804 0.25227 23.9868 0.523694 25.0574 0.910588C26.1673 1.30286 27.5744 2.01655 29.2786 3.05166C30.6105 3.87544 31.7133 4.46733 32.5869 4.82734C33.5053 5.15333 34.3781 5.3728 35.2052 5.48573C36.3474 5.64168 37.5747 5.46822 38.8871 4.96536C40.1995 4.46249 41.3956 3.78326 42.4753 2.92766L41.8542 7.47681C40.7691 8.3718 39.5981 9.01434 38.3412 9.40442C37.0843 9.79451 35.7469 9.89275 34.329 9.69916C33.2262 9.54858 32.1001 9.27447 30.9507 8.87682C29.8462 8.44516 28.4588 7.73416 26.7886 6.74382Z" fill="white"/>
<path d="M11.672 35.7245C10.8912 34.3669 10.1741 33.3266 9.52079 32.6035C8.92299 31.8718 8.27092 31.2481 7.56458 30.7324C6.6656 30.0761 5.51923 29.6575 4.12546 29.4767C2.7317 29.2959 1.35654 29.3255 0 29.5656L2.74244 25.8092C4.12242 25.537 5.44636 25.5438 6.71426 25.8296C8.00561 26.0833 9.22919 26.6321 10.385 27.4759C11.3161 28.1556 12.1608 28.92 12.9191 29.7689C13.7096 30.6413 14.6089 31.9377 15.617 33.658C16.3977 35.0156 17.087 36.0602 17.6848 36.792C18.3382 37.515 19.002 38.1227 19.6762 38.6149C20.6073 39.2947 21.7697 39.725 23.1635 39.9058C24.5573 40.0866 25.9324 40.057 27.289 39.8169L24.5817 43.5251C23.2017 43.7973 21.866 43.8066 20.5747 43.5529C19.2834 43.2992 18.0598 42.7504 16.9039 41.9066C16.005 41.2503 15.1442 40.4742 14.3217 39.5784C13.5547 38.6739 12.6714 37.3893 11.672 35.7245Z" fill="white"/>
</svg>
