<svg width="24" height="25" viewBox="0 0 24 25" fill="none" xmlns="http://www.w3.org/2000/svg">
<g clip-path="url(#clip0_151_4602)">
<g filter="url(#filter0_d_151_4602)">
<path d="M16.5 1.5H10.5L5.5 4.05814L0.5 8.66279L1 18.3837L9.5 23.5L19.5 22.4767L23 14.8023V8.66279L16.5 1.5Z" fill="white"/>
</g>
<path d="M16.7471 3.83593C16.3802 3.42315 15.7487 3.38601 15.3359 3.75292L6.33594 11.7529C6.12245 11.9427 6 12.2144 6 12.5C6 12.7856 6.12245 13.0573 6.33594 13.2471L15.3359 21.2471C15.7487 21.614 16.3802 21.5768 16.7471 21.1641C17.114 20.7513 17.0768 20.1198 16.6641 19.7529L8.50488 12.5L16.6641 5.24706C17.0768 4.88015 17.114 4.24871 16.7471 3.83593Z" fill="#030303"/>
</g>
<defs>
<filter id="filter0_d_151_4602" x="-0.80898" y="0.84551" width="25.118" height="24.618" filterUnits="userSpaceOnUse" color-interpolation-filters="sRGB">
<feFlood flood-opacity="0" result="BackgroundImageFix"/>
<feColorMatrix in="SourceAlpha" type="matrix" values="0 0 0 0 0 0 0 0 0 0 0 0 0 0 0 0 0 0 127 0" result="hardAlpha"/>
<feOffset dy="0.65449"/>
<feGaussianBlur stdDeviation="0.65449"/>
<feComposite in2="hardAlpha" operator="out"/>
<feColorMatrix type="matrix" values="0 0 0 0 0 0 0 0 0 0 0 0 0 0 0 0 0 0 0.25 0"/>
<feBlend mode="normal" in2="BackgroundImageFix" result="effect1_dropShadow_151_4602"/>
<feBlend mode="normal" in="SourceGraphic" in2="effect1_dropShadow_151_4602" result="shape"/>
</filter>
<clipPath id="clip0_151_4602">
<rect width="24" height="24" fill="white" transform="translate(0 0.5)"/>
</clipPath>
</defs>
</svg>
