<svg width="24" height="25" viewBox="0 0 24 25" fill="none" xmlns="http://www.w3.org/2000/svg">
<path d="M12 3.5C12.5523 3.5 13 3.94772 13 4.5V11.4951H20.0049C20.5572 11.4951 21.0049 11.9428 21.0049 12.4951C21.0048 13.0473 20.5571 13.4951 20.0049 13.4951H13V20.5C13 21.0523 12.5523 21.5 12 21.5C11.4477 21.5 11 21.0523 11 20.5V13.4951H4.00488C3.4527 13.4951 3.00495 13.0473 3.00488 12.4951C3.00488 11.9429 3.45265 11.4952 4.00488 11.4951H11V4.5C11 3.94772 11.4477 3.5 12 3.5Z" fill="#030303"/>
</svg>
