<svg width="20" height="20" viewBox="0 0 20 20" fill="none" xmlns="http://www.w3.org/2000/svg">
<g clip-path="url(#clip0_43_710)">
<g filter="url(#filter0_d_43_710)">
<path d="M2.08045 11.1878L9.44105 18.8112L16.6702 12.9622L19.0361 5.93019L15.3229 1.65841L10.0325 2.97281L7.17371 1.65842L2.34332 2.24989L0.634613 7.3103L2.08045 11.1878Z" fill="white"/>
</g>
<path d="M15.491 5.34347C14.2785 4.08485 12.3121 4.0851 11.0994 5.34347L9.99981 6.4841L8.90118 5.34347C7.68851 4.08507 5.72213 4.08488 4.50957 5.34347C3.29701 6.60213 3.29719 8.64329 4.50957 9.90207L9.99883 15.6003L15.491 9.90207C16.7033 8.64329 16.7036 6.60211 15.491 5.34347Z" fill="#FF654A"/>
<path d="M9.99981 15.5984L9.99883 15.6003M9.99883 15.6003L4.50957 9.90207C3.29719 8.64329 3.29701 6.60213 4.50957 5.34347C5.72213 4.08488 7.68851 4.08507 8.90118 5.34347L9.99981 6.4841L11.0994 5.34347C12.3121 4.0851 14.2785 4.08485 15.491 5.34347C16.7036 6.60211 16.7033 8.64329 15.491 9.90207L9.99883 15.6003Z" stroke="#FF654A" stroke-width="1.6"/>
</g>
<defs>
<filter id="filter0_d_43_710" x="-0.456204" y="1.11301" width="20.5831" height="19.3344" filterUnits="userSpaceOnUse" color-interpolation-filters="sRGB">
<feFlood flood-opacity="0" result="BackgroundImageFix"/>
<feColorMatrix in="SourceAlpha" type="matrix" values="0 0 0 0 0 0 0 0 0 0 0 0 0 0 0 0 0 0 127 0" result="hardAlpha"/>
<feOffset dy="0.545408"/>
<feGaussianBlur stdDeviation="0.545408"/>
<feComposite in2="hardAlpha" operator="out"/>
<feColorMatrix type="matrix" values="0 0 0 0 0 0 0 0 0 0 0 0 0 0 0 0 0 0 0.25 0"/>
<feBlend mode="normal" in2="BackgroundImageFix" result="effect1_dropShadow_43_710"/>
<feBlend mode="normal" in="SourceGraphic" in2="effect1_dropShadow_43_710" result="shape"/>
</filter>
<clipPath id="clip0_43_710">
<rect width="20" height="20" fill="white"/>
</clipPath>
</defs>
</svg>
