<svg width="229" height="132" viewBox="0 0 229 132" fill="none" xmlns="http://www.w3.org/2000/svg">
<g filter="url(#filter0_d_48_994)">
<path d="M23.0324 2.16724L2.98743 32.8837L9.87788 70.4956L2.98743 106.227L63.7487 128.167L197.173 121.899L225.987 70.4956L208.448 32.8837L197.173 2.16724L137.038 6.5553L23.0324 2.16724Z" fill="white"/>
</g>
<path d="M51.8562 70.2821H52.6212C53.1312 70.5088 53.6129 71.1604 54.0662 72.2371C53.8962 75.0704 53.8112 76.8554 53.8112 77.5921C53.8112 86.4888 56.1629 92.0704 60.8662 94.3371C62.3396 94.9604 63.6146 95.2721 64.6912 95.2721C68.9979 95.2721 73.5312 92.7788 78.2912 87.7921H80.5012C81.4646 88.3588 81.9462 89.0671 81.9462 89.9171V90.1721C81.9462 92.2121 79.0279 94.8754 73.1912 98.1621C70.0746 99.5788 67.4112 100.315 65.2012 100.372C58.1179 100.372 53.1879 96.6604 50.4112 89.2371C49.2779 84.9871 48.7112 81.0204 48.7112 77.3371C48.7112 72.8038 49.5329 70.5371 51.1762 70.5371C51.1762 70.3671 51.4029 70.2821 51.8562 70.2821ZM81.1812 23.7021H81.4362C82.7962 23.7021 83.6179 24.6654 83.9012 26.5921C83.3912 37.1888 83.1362 43.8188 83.1362 46.4821H82.8812C82.8812 46.6521 82.9662 46.7371 83.1362 46.7371C83.1362 46.8504 83.0512 47.3321 82.8812 48.1821C82.7112 53.3388 82.6262 56.3421 82.6262 57.1921C82.0029 58.7788 81.0396 59.5721 79.7362 59.5721C78.3196 59.0621 77.6112 58.2688 77.6112 57.1921V49.6271C77.6112 49.4571 77.6679 49.3721 77.7812 49.3721C77.7812 49.2588 77.7246 49.2021 77.6112 49.2021C77.6112 48.9754 77.6679 48.7204 77.7812 48.4371C77.9512 42.0338 78.1212 38.5488 78.2912 37.9821C78.2912 37.8121 78.2062 37.7271 78.0362 37.7271L78.2912 36.5371C78.2912 28.3204 78.8579 24.2121 79.9912 24.2121C79.9912 23.9288 80.3879 23.7588 81.1812 23.7021ZM38.0012 24.0421H38.9362C40.0696 24.0421 42.1379 25.4588 45.1412 28.2921C46.3312 27.7821 47.9746 27.5271 50.0712 27.5271H52.3662C59.1096 28.4338 62.4812 31.7204 62.4812 37.3871C62.4812 40.1071 61.4046 43.0821 59.2512 46.3121C61.7446 49.8821 62.9912 52.8571 62.9912 55.2371V55.4921C62.9912 57.8154 61.9146 58.9771 59.7612 58.9771C58.5146 58.9771 57.6929 57.0788 57.2962 53.2821C56.2762 51.8088 55.7662 50.9021 55.7662 50.5621H55.5962C50.4396 54.9254 45.3112 57.4754 40.2112 58.2121L38.2562 58.7221C36.2729 58.3821 35.2812 57.4754 35.2812 56.0021C35.2812 54.1888 37.4912 53.0271 41.9112 52.5171C49.0512 49.9104 54.0096 45.7738 56.7862 40.1071C56.7862 39.9371 56.9562 39.0304 57.2962 37.3871C57.2962 35.4038 55.9646 33.9304 53.3012 32.9671C52.6212 32.9671 51.7146 32.8821 50.5812 32.7121C46.0479 32.7121 40.6929 35.1204 34.5162 39.9371H33.4962C32.3629 39.9371 31.5412 39.1721 31.0312 37.6421C31.0312 35.5454 33.7512 33.1654 39.1912 30.5021V30.2471C36.8679 28.8304 35.7062 27.4988 35.7062 26.2521C35.9329 24.7788 36.6979 24.0421 38.0012 24.0421ZM111.284 23.9571C124.147 23.9571 132.052 27.6688 134.999 35.0921H134.744C135.367 36.2254 135.679 37.6421 135.679 39.3421V40.2771C135.282 46.0004 134.262 48.8621 132.619 48.8621C132.619 49.0321 132.534 49.1171 132.364 49.1171V48.8621L131.939 49.1171C130.522 48.7771 129.814 48.0688 129.814 46.9921V46.4821C130.437 42.6854 130.749 40.5604 130.749 40.1071C130.749 35.5738 128.227 32.4004 123.184 30.5871C121.597 29.9638 118.594 29.4254 114.174 28.9721C114.004 28.9721 113.919 29.0288 113.919 29.1421L112.984 28.9721C107.544 28.9721 101.056 29.6804 93.5188 31.0971C91.6488 30.8138 90.7138 30.0204 90.7138 28.7171C90.7138 26.6204 93.6322 25.3454 99.4688 24.8921C104.626 24.2688 108.564 23.9571 111.284 23.9571ZM131.429 59.7421C131.712 59.9121 132.024 59.9971 132.364 59.9971L132.874 59.7421C135.084 59.7421 136.189 60.7054 136.189 62.6321C136.189 64.2188 134.914 65.0121 132.364 65.0121H120.294C120.124 65.0121 120.039 65.0688 120.039 65.1821L119.614 65.0121C119.331 65.1254 119.019 65.1821 118.679 65.1821V65.0121L118.169 65.1821H117.234C117.064 65.1821 116.979 65.1254 116.979 65.0121C116.696 65.1254 116.469 65.1821 116.299 65.1821V74.4471L116.554 75.8921L116.299 76.4021C116.299 76.5154 116.384 76.5721 116.554 76.5721C116.554 76.7421 116.469 76.9971 116.299 77.3371C116.469 84.5904 116.554 90.2004 116.554 94.1671V97.7371C116.554 98.3038 116.611 99.0121 116.724 99.8621C116.214 101.902 115.364 102.922 114.174 102.922C112.417 102.922 111.539 101.109 111.539 97.4821V96.7171C111.539 90.6538 111.454 82.2104 111.284 71.3871C111.114 71.3871 111.029 71.3021 111.029 71.1321C111.199 71.1321 111.284 71.0471 111.284 70.8771H111.029C111.199 70.5938 111.284 70.3671 111.284 70.1971L111.029 69.6871C111.029 69.5738 111.114 69.5171 111.284 69.5171L111.029 68.3271V67.5621L111.284 67.1371C111.114 67.1371 111.029 67.0521 111.029 66.8821H111.284L111.029 66.3721V65.1821H92.0738C90.0338 65.0121 89.0138 64.2471 89.0138 62.8871V62.6321C89.0138 61.0454 90.2038 60.2521 92.5838 60.2521H97.0888C97.4288 60.2521 97.7405 60.1671 98.0238 59.9971C98.3072 60.1671 98.6188 60.2521 98.9588 60.2521H99.2138L100.829 59.9971V60.2521L101.339 59.9971H101.594L102.019 60.2521V59.9971C102.189 59.9971 102.274 60.0821 102.274 60.2521L103.464 59.9971H103.974C106.014 59.9971 107.034 60.0821 107.034 60.2521C108.734 60.0821 110.236 59.9971 111.539 59.9971H130.494C130.834 59.9971 131.146 59.9121 131.429 59.7421ZM163.029 75.6371C163.029 75.8071 163.114 75.8921 163.284 75.8921C163.284 75.7221 163.341 75.6371 163.454 75.6371V75.8921L163.964 75.6371H164.899C165.296 75.6371 165.607 75.7221 165.834 75.8921C166.004 75.8921 166.089 75.8071 166.089 75.6371C172.776 75.6371 177.366 77.3088 179.859 80.6521C180.936 82.0688 181.474 83.8821 181.474 86.0921C181.474 89.3221 177.366 91.2204 169.149 91.7871C159.516 92.0704 154.699 92.9204 154.699 94.3371V94.5921C154.699 96.8021 157.391 98.4738 162.774 99.6071H167.534C172.124 99.6071 177.111 98.7288 182.494 96.9721H182.664C184.081 96.9721 184.789 97.9071 184.789 99.7771C184.789 102.214 178.726 103.885 166.599 104.792C166.316 104.622 165.919 104.537 165.409 104.537H165.154C164.984 104.537 164.899 104.622 164.899 104.792L164.474 104.537H163.454C157.901 104.537 153.566 102.327 150.449 97.9071C150.166 97.1704 149.854 95.9238 149.514 94.1671C150.647 90.8238 151.979 89.1521 153.509 89.1521C153.509 88.1321 159.912 87.1688 172.719 86.2621C175.099 85.9221 176.289 85.5538 176.289 85.1571V84.9021C176.289 82.1821 172.747 80.8221 165.664 80.8221H155.634L155.209 81.0771V80.8221C154.869 80.9921 154.642 81.0771 154.529 81.0771L153.339 80.8221L152.319 81.0771C149.656 81.0771 148.324 80.1421 148.324 78.2721C148.324 77.5354 149.032 76.8271 150.449 76.1471C154.359 75.9771 157.447 75.8921 159.714 75.8921H160.649L163.029 75.6371ZM183.684 59.7421C183.967 59.9121 184.279 59.9971 184.619 59.9971L185.129 59.7421C187.339 59.7421 188.444 60.7054 188.444 62.6321C188.444 64.2188 187.169 65.0121 184.619 65.0121H172.549C172.379 65.0121 172.294 65.0688 172.294 65.1821L171.869 65.0121C171.586 65.1254 171.274 65.1821 170.934 65.1821V65.0121L170.424 65.1821H169.489C169.319 65.1821 169.234 65.1254 169.234 65.0121C169.064 65.0121 168.979 65.0688 168.979 65.1821C168.696 65.1821 168.554 65.1254 168.554 65.0121C164.531 65.1254 161.612 65.1821 159.799 65.1821H144.329C142.289 65.0121 141.269 64.2471 141.269 62.8871V62.6321C141.269 61.0454 142.459 60.2521 144.839 60.2521H149.344C149.684 60.2521 149.996 60.1671 150.279 59.9971C150.562 60.1671 150.874 60.2521 151.214 60.2521H151.469L153.084 59.9971V60.2521L153.594 59.9971H153.849L154.274 60.2521V59.9971C154.444 59.9971 154.529 60.0821 154.529 60.2521L155.719 59.9971H182.749C183.089 59.9971 183.401 59.9121 183.684 59.7421ZM178.924 23.9571H179.179C182.352 23.9571 183.939 24.8354 183.939 26.5921V27.5271C183.372 28.4904 182.664 28.9721 181.814 28.9721H174.419C167.052 28.9721 159.317 30.5304 151.214 33.6471C148.834 35.1204 147.644 36.3954 147.644 37.4721C147.644 39.7388 152.546 41.6371 162.349 43.1671L167.789 43.6771V43.4221C168.129 43.5921 168.384 43.6771 168.554 43.6771C173.597 43.6771 178.641 43.2804 183.684 42.4871C184.987 42.4871 185.866 43.2521 186.319 44.7821C186.319 46.7088 184.732 47.6721 181.559 47.6721C181.559 47.8421 181.021 48.0121 179.944 48.1821V47.9271C179.094 48.2104 177.252 48.3521 174.419 48.3521H173.994L173.484 48.6071V48.3521L173.059 48.6071H172.804C157.164 48.6071 147.446 46.0854 143.649 41.0421C142.856 39.7388 142.459 38.6338 142.459 37.7271V36.9621C142.459 31.4088 149.882 27.3004 164.729 24.6371C168.582 24.1838 173.314 23.9571 178.924 23.9571Z" fill="#282828"/>
<defs>
<filter id="filter0_d_48_994" x="0.631262" y="0.989154" width="227.712" height="130.712" filterUnits="userSpaceOnUse" color-interpolation-filters="sRGB">
<feFlood flood-opacity="0" result="BackgroundImageFix"/>
<feColorMatrix in="SourceAlpha" type="matrix" values="0 0 0 0 0 0 0 0 0 0 0 0 0 0 0 0 0 0 127 0" result="hardAlpha"/>
<feOffset dy="1.17808"/>
<feGaussianBlur stdDeviation="1.17808"/>
<feComposite in2="hardAlpha" operator="out"/>
<feColorMatrix type="matrix" values="0 0 0 0 0 0 0 0 0 0 0 0 0 0 0 0 0 0 0.25 0"/>
<feBlend mode="normal" in2="BackgroundImageFix" result="effect1_dropShadow_48_994"/>
<feBlend mode="normal" in="SourceGraphic" in2="effect1_dropShadow_48_994" result="shape"/>
</filter>
</defs>
</svg>
