<svg width="18" height="44" viewBox="0 0 18 44" fill="none" xmlns="http://www.w3.org/2000/svg">
<path d="M13.1583 30.0562L9.87535 30.9359L0.518367 1.7748L6.68118 0.12348L13.1583 30.0562ZM10.1857 39.9273C9.80503 38.5066 9.88311 37.4156 10.4199 36.6545C10.9568 35.8933 11.7243 35.379 12.7227 35.1115C13.6826 34.8543 14.5853 34.9211 15.4308 35.3118C16.3147 35.6923 16.947 36.5929 17.3277 38.0136C17.6981 39.3959 17.6008 40.492 17.0358 41.3018C16.5093 42.1014 15.7661 42.6298 14.8061 42.887C13.8078 43.1545 12.8807 43.0737 12.025 42.6445C11.1692 42.2153 10.5561 41.3096 10.1857 39.9273Z" fill="white"/>
</svg>
