<svg width="24" height="25" viewBox="0 0 24 25" fill="none" xmlns="http://www.w3.org/2000/svg">
<path fill-rule="evenodd" clip-rule="evenodd" d="M10.5 3.5C14.6421 3.5 18 6.85786 18 11C18 12.7105 17.4259 14.2861 16.4619 15.5479L21.207 20.293C21.5975 20.6835 21.5975 21.3165 21.207 21.707C20.8165 22.0976 20.1835 22.0975 19.793 21.707L15.0479 16.9619C13.7861 17.9259 12.2105 18.5 10.5 18.5C6.35786 18.5 3 15.1421 3 11C3 6.85786 6.35786 3.5 10.5 3.5ZM10.5 5.5C7.46243 5.5 5 7.96243 5 11C5 14.0376 7.46243 16.5 10.5 16.5C13.5376 16.5 16 14.0376 16 11C16 7.96243 13.5376 5.5 10.5 5.5Z" fill="#030303"/>
</svg>
