<svg width="24" height="25" viewBox="0 0 24 25" fill="none" xmlns="http://www.w3.org/2000/svg">
<path fill-rule="evenodd" clip-rule="evenodd" d="M4.6738 6.39098C4.6738 5.39664 5.68417 4.74866 6.56931 5.10973L6.74411 5.19567L9.39548 6.72692C10.2121 6.44694 11.088 6.29245 11.999 6.29235L12.3984 6.30211C13.1659 6.34007 13.9053 6.48836 14.6015 6.72692L17.2549 5.19567C18.1751 4.66516 19.3252 5.32981 19.3252 6.39098V11.0238C19.5506 11.5222 19.7264 12.0474 19.8476 12.5931L21.29 12.2074C21.61 12.1217 21.9386 12.3112 22.0244 12.6312C22.1098 12.9511 21.9204 13.2798 21.6006 13.3656L20.0185 13.7894C20.0306 13.9689 20.039 14.1499 20.039 14.3324C20.039 14.6796 20.0141 15.011 19.9697 15.3275L21.6006 15.765C21.9204 15.8509 22.1101 16.1794 22.0244 16.4994C21.9385 16.8192 21.6099 17.0088 21.29 16.9232L19.6806 16.4916C19.5899 16.735 19.484 16.9676 19.3584 17.1869C18.9016 17.9841 18.2454 18.567 17.4746 18.9828C16.1607 19.6913 14.4804 19.9317 12.7451 19.9808L11.999 19.9916C10.0049 19.9915 8.0257 19.7917 6.52438 18.9818C5.75358 18.5659 5.0972 17.9834 4.64059 17.1859C4.51512 16.9667 4.40903 16.7347 4.31833 16.4916L2.70993 16.9232C2.39 17.0088 2.06139 16.8192 1.97556 16.4994C1.88982 16.1794 2.07951 15.8509 2.39938 15.765L4.02927 15.3275C3.98478 15.0111 3.95996 14.6796 3.95993 14.3324C3.95993 14.15 3.96833 13.9689 3.98044 13.7894L2.39938 13.3656C2.07957 13.2798 1.89012 12.9511 1.97556 12.6312C2.06135 12.3112 2.38991 12.1217 2.70993 12.2074L4.15134 12.5931C4.27255 12.0475 4.44845 11.5222 4.6738 11.0238V6.39098ZM15.1367 8.49743C14.8963 8.63607 14.6047 8.65658 14.3476 8.55211C13.6226 8.25729 12.8301 8.09313 11.999 8.09313C11.1677 8.09324 10.3753 8.25721 9.65036 8.55211C9.39317 8.65645 9.10165 8.63627 8.8613 8.49743L6.47458 7.11852V11.2172C6.47455 11.3533 6.44324 11.4882 6.38376 11.6107C6.16306 12.0652 5.99786 12.5513 5.89255 13.0599L6.1445 13.1273C6.4645 13.2131 6.65393 13.5417 6.56833 13.8617C6.48237 14.1815 6.15386 14.3722 5.83395 14.2865L5.76169 14.267C5.76147 14.2887 5.76071 14.3106 5.76071 14.3324L5.76852 14.6449C5.77233 14.7174 5.77873 14.7879 5.78513 14.8568L5.83395 14.8441C6.15402 14.7584 6.48257 14.9488 6.56833 15.2689C6.65387 15.5889 6.46447 15.9176 6.1445 16.0033L6.06833 16.0228C6.10999 16.118 6.15388 16.2081 6.20212 16.2923C6.4679 16.7565 6.85817 17.1169 7.37888 17.3978C8.46098 17.9815 10.0511 18.1907 11.999 18.1908C13.947 18.1908 15.5377 17.9815 16.6201 17.3978C17.1409 17.1169 17.531 16.7564 17.7968 16.2923C17.845 16.2083 17.8881 16.1177 17.9297 16.0228L17.8554 16.0033C17.5355 15.9176 17.3461 15.5889 17.4316 15.2689C17.5174 14.9488 17.8459 14.7584 18.166 14.8441L18.2129 14.8568C18.2281 14.6922 18.2382 14.5178 18.2383 14.3324L18.2363 14.267L18.166 14.2865C17.8461 14.3722 17.5176 14.1815 17.4316 13.8617C17.346 13.5417 17.5354 13.2131 17.8554 13.1273L18.1084 13.0589C18.0028 12.5505 17.8359 12.0651 17.6152 11.6107C17.5557 11.4882 17.5244 11.3533 17.5244 11.2172V7.11852L15.1367 8.49743Z" fill="#030303"/>
</svg>
