<svg width="24" height="24" viewBox="0 0 24 24" fill="none" xmlns="http://www.w3.org/2000/svg">
<g clip-path="url(#clip0_151_4435)">
<g filter="url(#filter0_d_151_4435)">
<path d="M16.5 1.5H10.5L5.5 4.5L1 10L3 19.5L9.5 23L20.5 22L23 14.5L22.5 6.5L16.5 1.5Z" fill="white"/>
</g>
<path d="M5.5 10.5C6.32843 10.5 7 11.1716 7 12C7 12.8284 6.32843 13.5 5.5 13.5C4.67157 13.5 4 12.8284 4 12C4 11.1716 4.67157 10.5 5.5 10.5Z" fill="#030303"/>
<path d="M12 10.5C12.8284 10.5 13.5 11.1716 13.5 12C13.5 12.8284 12.8284 13.5 12 13.5C11.1716 13.5 10.5 12.8284 10.5 12C10.5 11.1716 11.1716 10.5 12 10.5Z" fill="#030303"/>
<path d="M18.5 10.5C19.3284 10.5 20 11.1716 20 12C20 12.8284 19.3284 13.5 18.5 13.5C17.6716 13.5 17 12.8284 17 12C17 11.1716 17.6716 10.5 18.5 10.5Z" fill="#030303"/>
</g>
<defs>
<filter id="filter0_d_151_4435" x="-0.30898" y="0.84551" width="24.618" height="24.118" filterUnits="userSpaceOnUse" color-interpolation-filters="sRGB">
<feFlood flood-opacity="0" result="BackgroundImageFix"/>
<feColorMatrix in="SourceAlpha" type="matrix" values="0 0 0 0 0 0 0 0 0 0 0 0 0 0 0 0 0 0 127 0" result="hardAlpha"/>
<feOffset dy="0.65449"/>
<feGaussianBlur stdDeviation="0.65449"/>
<feComposite in2="hardAlpha" operator="out"/>
<feColorMatrix type="matrix" values="0 0 0 0 0 0 0 0 0 0 0 0 0 0 0 0 0 0 0.25 0"/>
<feBlend mode="normal" in2="BackgroundImageFix" result="effect1_dropShadow_151_4435"/>
<feBlend mode="normal" in="SourceGraphic" in2="effect1_dropShadow_151_4435" result="shape"/>
</filter>
<clipPath id="clip0_151_4435">
<rect width="24" height="24" fill="white"/>
</clipPath>
</defs>
</svg>
