<svg width="170" height="173" viewBox="0 0 170 173" fill="none" xmlns="http://www.w3.org/2000/svg">
<path d="M13.6124 17.3777C14.1636 15.5691 14.8668 13.8551 15.7219 12.2357C16.5991 10.6229 17.6402 9.14447 18.8453 7.80037C20.0504 6.45627 21.4059 5.29062 22.912 4.3034L25.6579 5.14027C24.2266 6.19848 22.9161 7.41403 21.7263 8.78691C20.5586 10.1665 19.5396 11.6517 18.6691 13.2424C17.7986 14.8331 17.0979 16.4996 16.5669 18.2419C16.0493 19.9402 15.7115 21.6812 15.5535 23.4649C15.3955 25.2487 15.4231 27.0167 15.6363 28.7689C15.8428 30.5432 16.2415 32.2797 16.8326 33.9784L14.1198 33.1516C13.4136 31.5143 12.9319 29.8127 12.6746 28.047C12.4106 26.3034 12.361 24.5287 12.5257 22.7229C12.7124 20.9238 13.0747 19.1421 13.6124 17.3777Z" fill="white"/>
<path d="M4.35581 14.5564C4.90701 12.7479 5.61017 11.0339 6.4653 9.41443C7.34249 7.80167 8.38362 6.32324 9.58869 4.97915C10.7938 3.63505 12.1493 2.46939 13.6554 1.48217L16.4013 2.31904C14.97 3.37726 13.6595 4.5928 12.4697 5.96568C11.302 7.34527 10.283 8.83042 9.4125 10.4211C8.54204 12.0118 7.84129 13.6784 7.31027 15.4207C6.79268 17.119 6.4549 18.86 6.29693 20.6437C6.13895 22.4275 6.16655 24.1954 6.37973 25.9477C6.58619 27.722 6.98495 29.4585 7.57602 31.1572L4.86323 30.3304C4.15706 28.693 3.67532 26.9915 3.41803 25.2258C3.15402 23.4822 3.10436 21.7075 3.26906 19.9017C3.45581 18.1026 3.81807 16.3208 4.35581 14.5564Z" fill="white"/>
<path d="M151.362 156.926C149.664 157.758 147.931 158.414 146.164 158.894C144.387 159.354 142.596 159.602 140.791 159.638C138.986 159.675 137.209 159.48 135.459 159.053L134.197 156.475C135.947 156.799 137.73 156.927 139.545 156.859C141.351 156.771 143.132 156.502 144.888 156.053C146.645 155.603 148.341 154.978 149.977 154.177C151.572 153.396 153.075 152.455 154.486 151.353C155.898 150.251 157.171 149.024 158.306 147.672C159.462 146.31 160.459 144.834 161.297 143.242L162.544 145.789C161.83 147.423 160.915 148.937 159.8 150.33C158.706 151.713 157.443 152.96 156.01 154.072C154.568 155.164 153.019 156.115 151.362 156.926Z" fill="white"/>
<path d="M155.618 165.617C153.92 166.449 152.187 167.105 150.42 167.585C148.643 168.045 146.851 168.293 145.047 168.329C143.242 168.366 141.465 168.171 139.715 167.744L138.453 165.166C140.203 165.49 141.986 165.618 143.801 165.55C145.607 165.462 147.388 165.193 149.144 164.744C150.901 164.294 152.597 163.669 154.233 162.868C155.828 162.087 157.331 161.146 158.742 160.044C160.154 158.942 161.427 157.715 162.562 156.363C163.718 155.001 164.715 153.525 165.553 151.933L166.8 154.48C166.086 156.114 165.171 157.627 164.056 159.021C162.962 160.404 161.699 161.651 160.266 162.763C158.824 163.855 157.274 164.806 155.618 165.617Z" fill="white"/>
</svg>
